<?xml version="1.0" encoding="iso-8859-1"?>
<!-- Generator: Adobe Illustrator 19.0.0, SVG Export Plug-In . SVG Version: 6.00 Build 0)  -->
<svg version="1.1" id="Layer_1" xmlns="http://www.w3.org/2000/svg" xmlns:xlink="http://www.w3.org/1999/xlink" x="0px" y="0px"
	 viewBox="0 0 512 512" style="enable-background:new 0 0 512 512;" xml:space="preserve">
<path style="fill:#FF3F62;" d="M369.027,12.537c-1.361-8.172-9.102-13.693-17.262-12.33l-98.229,16.372
	c-7.233,1.206-12.534,7.464-12.534,14.796v114.603c0,8.284,6.716,15,15,15c8.284,0,15-6.716,15-15V44.081l85.696-14.283
	C364.868,28.437,370.389,20.709,369.027,12.537z"/>
<path style="fill:#FFE477;" d="M355.069,134.257c-2.658-2.123-5.959-3.279-9.361-3.279H166.296c-3.402,0-6.703,1.156-9.361,3.279
	c-51.825,41.392-82.766,111.511-82.766,187.57c0.002,75.52,30.603,145.362,81.855,186.832c2.671,2.16,6.001,3.339,9.436,3.339
	L346.543,512c3.435,0,6.766-1.179,9.436-3.34c51.252-41.472,81.85-111.315,81.85-186.833
	C437.828,245.766,406.89,175.647,355.069,134.257z"/>
<path style="fill:#FFCD00;" d="M355.069,134.257c-2.658-2.123-5.959-3.279-9.361-3.279h-89.706v381.021L346.544,512
	c3.435,0,6.766-1.179,9.436-3.34c51.252-41.472,81.85-111.315,81.85-186.833C437.828,245.766,406.89,175.647,355.069,134.257z"/>
<path style="fill:#FF7956;" d="M419.615,394.455l-72.942-72.939l72.78-72.78c5.858-5.857,5.858-15.355,0-21.213
	c-5.857-5.858-15.355-5.858-21.213,0l-72.78,72.78l-48.246-48.248l88.041-88.037c5.857-5.857,5.858-15.354,0-21.213
	c-5.856-5.857-15.355-5.858-21.213,0l-88.041,88.037l-87.92-87.916c-5.857-5.858-15.355-5.857-21.213,0
	c-5.858,5.858-5.858,15.355,0,21.213l87.921,87.916l-48.246,48.248l-72.782-72.78c-5.857-5.858-15.355-5.857-21.213,0
	c-5.858,5.858-5.858,15.355,0,21.213l72.782,72.78l-72.942,72.939c-5.857,5.857-5.858,15.354,0,21.213
	c5.857,5.858,15.355,5.858,21.213,0l72.942-72.938l48.246,48.246l-88.24,88.24c-5.858,5.857-5.858,15.355,0,21.213
	c2.929,2.93,6.768,4.393,10.606,4.393c3.838,0,7.678-1.464,10.606-4.393l88.24-88.24l88.24,88.24
	c2.929,2.93,6.767,4.393,10.606,4.393c3.839,0,7.678-1.464,10.606-4.393c5.858-5.857,5.858-15.355,0-21.213l-88.24-88.24
	l48.246-48.247l72.942,72.939c5.857,5.858,15.355,5.858,21.213,0C425.473,409.81,425.473,400.312,419.615,394.455z M256.001,369.763
	l-48.246-48.246l48.246-48.249l48.246,48.248L256.001,369.763z"/>
<path style="fill:#FF3501;" d="M419.615,394.455l-72.942-72.939l72.78-72.78c5.858-5.857,5.858-15.355,0-21.213
	c-5.857-5.858-15.355-5.858-21.213,0l-72.78,72.78l-48.246-48.248l88.041-88.037c5.857-5.857,5.858-15.354,0-21.213
	c-5.856-5.857-15.355-5.858-21.213,0l-88.041,88.037v42.426l48.246,48.248l-48.246,48.247v42.426l88.24,88.24
	c2.929,2.93,6.767,4.393,10.606,4.393c3.839,0,7.678-1.464,10.606-4.393c5.858-5.857,5.858-15.355,0-21.213l-88.24-88.24
	l48.246-48.247l72.942,72.939c5.857,5.858,15.355,5.858,21.213,0C425.473,409.81,425.473,400.312,419.615,394.455z"/>
<g>
</g>
<g>
</g>
<g>
</g>
<g>
</g>
<g>
</g>
<g>
</g>
<g>
</g>
<g>
</g>
<g>
</g>
<g>
</g>
<g>
</g>
<g>
</g>
<g>
</g>
<g>
</g>
<g>
</g>
</svg>
