<svg width="511" height="574" viewBox="0 0 511 574" fill="none" xmlns="http://www.w3.org/2000/svg">
<path d="M504.319 401.105L393.391 286.842L504.072 172.828C512.981 163.653 512.981 148.774 504.072 139.597C495.165 130.42 480.721 130.42 471.812 139.597L361.13 253.611L287.759 178.028L421.65 40.1133C430.557 30.938 430.558 16.0605 421.65 6.88205C412.744 -2.29323 398.298 -2.2948 389.389 6.88205L255.499 144.796L121.793 7.07161C112.886 -2.10524 98.4413 -2.10368 89.5326 7.07161C80.6239 16.2485 80.6239 31.126 89.5326 40.3029L223.24 178.028L149.869 253.611L39.1844 139.597C30.2772 130.42 15.8329 130.422 6.92426 139.597C-1.98442 148.774 -1.98442 163.651 6.92426 172.828L117.609 286.842L6.68094 401.105C-2.22622 410.28 -2.22774 425.157 6.68094 434.336C15.5881 443.513 30.0324 443.513 38.9411 434.336L149.869 320.075L223.24 395.655L89.0475 533.887C80.1388 543.062 80.1388 557.941 89.0475 567.118C93.5018 571.708 99.3401 574 105.177 574C111.014 574 116.853 571.707 121.306 567.118L255.499 428.886L389.692 567.118C394.146 571.708 399.983 574 405.821 574C411.66 574 417.498 571.707 421.951 567.118C430.859 557.943 430.859 543.064 421.951 533.887L287.758 395.655L361.129 320.073L472.057 434.336C480.964 443.513 495.409 443.513 504.317 434.336C513.227 425.159 513.227 410.28 504.319 401.105ZM255.499 362.423L182.128 286.843L255.499 211.259L328.87 286.842L255.499 362.423Z" fill="#FDBA12"/>
</svg>
